HIERARCHY
ROOT Hips
{
	OFFSET -0.179506 -22.333345 2.821913
	CHANNELS 6 Xposition Yposition Zposition Zrotation Yrotation Xrotation 
	JOINT LeftUpLeg
	{
		OFFSET 6.951974 -9.140623 -0.681533
		CHANNELS 3 Zrotation Yrotation Xrotation
		JOINT LeftLeg
		{
			OFFSET 3.427654 -37.519855 -0.449580
			CHANNELS 3 Zrotation Yrotation Xrotation
			JOINT LeftFoot
			{
				OFFSET -1.359570 -39.796059 -4.369333
				CHANNELS 3 Zrotation Yrotation Xrotation
				JOINT LeftToe
				{
					OFFSET 2.635814 -5.579078 11.928840
					CHANNELS 3 Zrotation Yrotation Xrotation
					End Site
					{
						OFFSET 0.000000 0.000000 0.000000
					}
				}
			}
		}
	}
	JOINT RightUpLeg
	{
		OFFSET -6.767048 -9.052170 -0.431982
		CHANNELS 3 Zrotation Yrotation Xrotation
		JOINT RightLeg
		{
			OFFSET -3.829005 -38.256897 -0.885003
			CHANNELS 3 Zrotation Yrotation Xrotation
			JOINT RightFoot
			{
				OFFSET 1.577377 -39.841461 -4.231180
				CHANNELS 3 Zrotation Yrotation Xrotation
				JOINT RightToe
				{
					OFFSET -2.537174 -4.814398 12.334795
					CHANNELS 3 Zrotation Yrotation Xrotation
					End Site
					{
						OFFSET 0.000000 0.000000 0.000000
					}
				}
			}
		}
	}
	JOINT Spine
	{
		OFFSET -0.253288 10.896323 -2.669631
		CHANNELS 3 Zrotation Yrotation Xrotation
		JOINT Spine1
		{
			OFFSET 0.548704 13.518043 0.109247
			CHANNELS 3 Zrotation Yrotation Xrotation
			JOINT Spine2
			{
				OFFSET 0.145701 5.292222 2.542457
				CHANNELS 3 Zrotation Yrotation Xrotation
				JOINT Neck
				{
					OFFSET -0.277840 21.387037 -4.285703
					CHANNELS 3 Zrotation Yrotation Xrotation
					JOINT Head
					{
						OFFSET 0.515184 6.496960 5.134897
						CHANNELS 3 Zrotation Yrotation Xrotation
						End Site
						{
							OFFSET 0.000000 0.000000 0.000000
						}
					}
				}
				JOINT LeftShoulder
				{
					OFFSET 7.884473 12.174932 -3.408961
					CHANNELS 3 Zrotation Yrotation Xrotation
					JOINT LeftArm
					{
						OFFSET 9.097692 3.046888 -0.886815
						CHANNELS 3 Zrotation Yrotation Xrotation
						JOINT LeftForeArm
						{
							OFFSET 25.961220 -1.277207 -2.745643
							CHANNELS 3 Zrotation Yrotation Xrotation
							JOINT LeftHand
							{
								OFFSET 24.923361 0.898606 -0.117091
								CHANNELS 3 Zrotation Yrotation Xrotation
								End Site
								{
									OFFSET 0.000000 0.000000 0.000000
								}
							}
						}
					}
				}
				JOINT RightShoulder
				{
					OFFSET -8.175920 11.883285 -3.861528
					CHANNELS 3 Zrotation Yrotation Xrotation
					JOINT RightArm
					{
						OFFSET -9.601238 3.255117 -0.914307
						CHANNELS 3 Zrotation Yrotation Xrotation
						JOINT RightForeArm
						{
							OFFSET -25.374195 -1.332924 -2.140099
							CHANNELS 3 Zrotation Yrotation Xrotation
							JOINT RightHand
							{
								OFFSET -25.529810 0.777228 -0.555919
								CHANNELS 3 Zrotation Yrotation Xrotation
								End Site
								{
									OFFSET 0.000000 0.000000 0.000000
								}
							}
						}
					}
				}
			}
		}
	}
}
MOTION
Frames: 10
Frame Time: 0.033333
-16.070204 109.572746 25.275454 87.675912 -5.415587 166.514607 49.514086 33.990921 -31.733812 4.202995 29.430304 100.942709 -6.884939 -12.061037 -16.381008 nan nan nan -35.727766 -33.290419 -3.959632 1.257280 -29.185251 55.403290 12.021009 7.055274 -6.273524 nan nan nan -3.110794 6.095031 18.184616 -0.255046 -7.857360 0.921821 2.243967 0.192374 -14.087848 -6.676846 -7.517495 -24.379915 11.236236 -0.584625 -24.439524 2.344910 -26.509464 -2.515929 -9.670760 -15.975785 -17.737144 168.600000 -54.122535 -149.135444 -7.263953 -32.545729 -26.190439 -8.614044 25.569624 -3.837226 3.384893 19.308510 -29.837822 -131.374453 64.294198 -107.922601 17.346631 10.536560 10.350454 
-15.945881 109.551216 25.194866 87.742474 -5.466870 166.723903 49.535439 34.086263 -31.692895 4.055575 29.508888 100.771372 -7.273305 -11.919866 -16.511296 nan nan nan -35.655581 -33.350259 -3.841836 1.505034 -29.133221 55.101023 11.837628 7.374753 -6.829303 nan nan nan -2.993686 5.846455 17.878016 -0.073571 -8.185290 -0.190804 2.234312 0.343410 -13.164074 -6.915783 -7.202495 -23.887258 11.264130 -0.591825 -24.960433 2.449340 -26.352536 -2.412320 -8.064144 -15.150352 -18.722357 166.640970 -53.806945 -148.076851 -8.521786 -32.591196 -27.565102 -8.211870 25.748212 -3.383785 2.832003 19.634069 -30.170837 -132.235200 64.582678 -108.693675 17.348295 10.356416 9.911634 
-15.811643 109.536461 25.175589 87.765951 -5.464912 167.221266 49.384607 34.355728 -31.895448 4.043421 29.618671 100.726337 -7.550580 -11.960035 -16.575860 nan nan nan -35.400286 -33.385121 -4.183384 1.425828 -29.340834 55.066687 11.679892 7.816090 -7.265052 nan nan nan -2.909112 5.657537 17.178989 0.047240 -8.300805 -1.840691 2.283300 0.374500 -11.812090 -7.231754 -7.145431 -22.520932 11.346683 -0.348370 -26.147889 2.009004 -26.631822 -1.790708 -6.229103 -13.946393 -19.611669 164.647151 -53.574723 -146.706270 -9.801202 -33.023271 -27.393932 -7.590997 25.955170 -3.268107 2.512018 19.913584 -30.247920 -133.787522 65.273896 -110.098413 17.116942 10.381043 9.417719 
-15.735001 109.553558 25.100195 87.741663 -5.330405 167.236417 49.645019 34.216337 -31.521446 4.189292 29.870372 100.579877 -7.714285 -12.143752 -16.486908 nan nan nan -35.385716 -33.008856 -4.192523 1.610209 -29.439931 54.769272 11.603556 7.811805 -7.378809 nan nan nan -3.005553 6.006120 16.532988 0.383013 -7.859962 1.413114 2.440940 -0.045120 -13.925247 -6.689936 -6.397171 -24.778722 10.228448 -1.131884 -24.592321 4.231111 -25.526568 -3.236635 -6.997088 -14.557028 -20.546060 162.394866 -53.606038 -144.356187 -10.053820 -33.837664 -27.452826 -8.979695 24.793440 -4.445874 3.262313 21.138887 -29.633689 -132.905255 64.921871 -108.959698 18.270595 10.640749 8.912396 
-15.601830 109.535522 24.971354 87.786075 -5.211617 167.164572 49.806395 34.346227 -31.159913 3.887328 29.807858 100.160562 -7.760467 -12.045583 -16.362844 nan nan nan -35.302978 -32.828432 -4.001691 1.797944 -29.322612 54.363950 11.512841 7.757314 -7.474566 nan nan nan -2.890814 5.998408 16.534228 0.516281 -7.769962 1.579247 2.602685 -0.176867 -14.101592 -6.780982 -6.258888 -24.823268 10.096201 -1.049271 -24.700565 4.930951 -25.273810 -3.526868 -6.358151 -13.942637 -21.569042 160.188179 -53.604201 -142.600158 -9.790335 -34.170276 -27.277765 -9.550906 24.622322 -4.927642 3.856824 21.701498 -29.336297 -133.374390 65.097750 -109.413404 18.271557 10.890278 8.685957 
-15.492208 109.517342 24.868967 87.820690 -5.136486 167.089512 49.948635 34.335637 -30.851976 3.526434 29.816651 99.738956 -7.904138 -11.874083 -16.274375 nan nan nan -35.294854 -32.629856 -3.747346 2.119259 -29.200338 53.932178 11.596747 7.601927 -7.758141 nan nan nan -2.861409 6.022480 16.608289 0.723221 -7.773591 1.701577 2.733085 -0.303804 -14.201471 -6.784606 -5.824085 -25.210060 9.930373 -1.164753 -24.594904 5.464480 -25.103894 -3.776863 -5.068141 -13.232832 -22.571866 157.824448 -53.660505 -140.926220 -10.023907 -34.452353 -27.355857 -9.665897 24.470164 -5.280585 3.819366 22.141976 -29.046873 -133.688823 65.248953 -109.865358 18.242198 11.059309 8.353528 
-15.394814 109.508141 24.778214 87.850551 -5.111814 167.215595 50.021470 34.324875 -30.724266 3.384163 29.902139 99.470926 -8.279273 -11.887650 -16.213403 nan nan nan -35.220629 -32.467831 -3.694483 2.323524 -29.211106 53.606141 11.774530 7.606217 -8.130388 nan nan nan -2.915942 6.100429 16.421804 1.012437 -7.845599 1.807939 2.895326 -0.368055 -14.308338 -6.823690 -5.340296 -25.332323 9.681418 -1.301687 -24.706525 6.010441 -24.993270 -3.978024 -4.145884 -12.782038 -23.399015 155.422642 -53.790271 -138.927753 -10.411261 -34.842681 -27.513741 -9.685271 24.363255 -5.359313 3.521482 22.441906 -28.935189 -134.017815 65.324627 -110.188845 18.389554 11.267541 7.783170 
-15.299258 109.507538 24.666439 87.849927 -5.233114 167.487385 49.906263 34.281951 -30.825688 3.322149 29.996749 99.276224 -8.695755 -12.066883 -16.149515 nan nan nan -35.268796 -32.451905 -3.612037 2.469998 -29.345244 53.280930 11.908310 7.784625 -8.258253 nan nan nan -2.803388 6.168908 15.924592 1.181439 -8.081142 1.919117 2.970156 -0.529464 -14.395384 -7.087803 -5.117560 -25.026585 9.650270 -1.306099 -24.990198 7.153930 -24.790163 -4.108839 -4.099373 -12.279609 -24.078417 152.940865 -53.843854 -136.602177 -9.726269 -34.840814 -27.899167 -10.283053 24.213560 -5.611128 4.109622 23.008810 -28.693114 -134.438486 65.457800 -110.393346 18.191124 11.382121 7.435293 
-15.169930 109.522789 24.544880 87.942756 -5.306271 167.601842 49.924283 34.315758 -30.794762 3.034590 29.960809 98.944196 -8.916697 -12.191545 -16.021779 nan nan nan -35.238406 -32.434083 -3.382059 2.660099 -29.332588 52.811898 12.011469 7.723825 -8.445294 nan nan nan -2.847175 6.273112 15.709702 1.545352 -8.296533 1.838481 3.204314 -0.540937 -14.257515 -7.421044 -4.695903 -25.114998 9.451235 -1.522066 -25.179823 7.830496 -24.692377 -4.467834 -3.491999 -11.861782 -24.810811 150.855120 -54.037574 -134.780175 -8.935491 -34.286187 -27.900790 -10.322234 24.258340 -5.455823 3.662312 23.076943 -28.821073 -134.928564 65.364679 -110.820344 17.918812 11.163202 6.982026 
-15.031482 109.473564 24.457718 87.965274 -5.123212 167.465095 50.065219 34.566701 -30.353615 2.578256 29.668075 98.487194 -8.927993 -12.297253 -15.934913 nan nan nan -35.135192 -32.225293 -3.186492 2.607032 -29.191092 52.506143 12.158567 7.623213 -8.858383 nan nan nan -2.917251 6.255457 15.992950 1.753967 -8.294079 1.699419 3.354568 -0.365791 -14.355488 -7.690910 -4.311223 -25.169409 9.352306 -1.739325 -25.083345 9.007127 -24.695745 -4.833338 -3.031586 -11.470530 -25.842069 148.611821 -54.594188 -132.649586 -7.935665 -34.168714 -27.549803 -10.769239 24.220878 -5.483774 3.955723 23.182015 -29.027073 -135.521905 65.366017 -111.180323 18.126365 11.252756 6.312265 
